HIERARCHY
ROOT Hip
{
	OFFSET 0 0 0
	CHANNELS 6 Xposition Yposition Zposition Zrotation Yrotation Xrotation
	JOINT ShoulderCenter
	{
		OFFSET 0 0.4363 0
		CHANNELS 3 Zrotation Yrotation Xrotation
		JOINT Head
		{
			OFFSET 0 0.1849 0
			CHANNELS 3 Zrotation Yrotation Xrotation
			End Site
			{
				OFFSET 0.0 0.0891 0.0
			}
		}
		JOINT ShoulderLeft
		{
			OFFSET -0.14 0 0
			CHANNELS 3 Zrotation Yrotation Xrotation
			JOINT ElbowLeft
			{
				OFFSET -0.25 0 0
				CHANNELS 3 Zrotation Yrotation Xrotation
				JOINT WristLeft
				{
					OFFSET -0.23 0 0
					CHANNELS 3 Zrotation Yrotation Xrotation
					End Site
					{
						OFFSET -0.0832 0.0 0.0
					}
				}
			}
		}
		JOINT ShoulderRight
		{
			OFFSET 0.14 0 0
			CHANNELS 3 Zrotation Yrotation Xrotation
			JOINT ElbowRight
			{
				OFFSET 0.25 0 0
				CHANNELS 3 Zrotation Yrotation Xrotation
				JOINT WristRight
				{
					OFFSET 0.23 0 0
					CHANNELS 3 Zrotation Yrotation Xrotation
					End Site
					{
						OFFSET 0.0832 0.0 0.0
					}
				}
			}
		}
	}
	JOINT HipLeft
	{
		OFFSET -0.0952 0 0
		CHANNELS 3 Zrotation Yrotation Xrotation
		JOINT KneeLeft
		{
			OFFSET 0 -0.3732 0
			CHANNELS 3 Zrotation Yrotation Xrotation
			JOINT AnkleLeft
			{
				OFFSET 0 -0.346 0
				CHANNELS 3 Zrotation Yrotation Xrotation
				End Site
				{
					OFFSET 0.0 0.0 0.0891
				}
			}
		}
	}
	JOINT HipRight
	{
		OFFSET 0.0952 0 0
		CHANNELS 3 Zrotation Yrotation Xrotation
		JOINT KneeRight
		{
			OFFSET 0 -0.3732 0
			CHANNELS 3 Zrotation Yrotation Xrotation
			JOINT AnkleRight
			{
				OFFSET 0 -0.346 0
				CHANNELS 3 Zrotation Yrotation Xrotation
				End Site
				{
					OFFSET 0.0 0.0 0.0891
				}
			}
		}
	}
}
MOTION
Frames: 24
Frame Time: 0.033333
3.3701e-005 -3.33433e-005 -0.00244715 0.490969 0.514637 -5.43628 -0.599079 -1.33362 -0.243743 0 0 0 82.5166 -0.404676 14.1649 1.23862 20.5039 0.903438 0 0 0 -82.3459 -1.20302 15.9905 0.537813 -21.6352 0.115604 0 0 0 6.29617 19.8428 1.28897 -30.4045 -11.9958 -31.7902 4.03734e-007 -4.24647e-008 4.87854e-007 177.99 -58.9133 178.582 16.8453 -25.4096 58.8482 0 0 0 
3.25819e-005 -3.30911e-005 -0.00244791 0.669248 0.777036 -5.63027 -1.06745 -1.37537 0.295957 0 0 0 82.6691 0.111348 13.9285 1.14508 20.8488 0.828698 0 0 0 -82.0518 -1.60865 16.1422 0.568533 -21.8947 0.0873251 0 0 0 6.10096 20.4841 1.43648 -30.8975 -12.2608 -31.6875 3.98182e-007 2.14771e-009 4.52828e-007 178.055 -59.6101 178.302 17.3668 -25.7684 58.2908 -2.69272e-007 -3.96717e-007 -1.19523e-006 
3.17836e-005 -3.30911e-005 -0.00244827 0.670318 0.925111 -5.75159 -0.900441 -1.24902 0.451738 -1.09989e-010 -5.10466e-009 2.06771e-007 82.5061 0.46922 13.6606 0.710684 21.3327 0.665628 0 0 0 -82.2406 -1.91485 16.4104 0.900278 -21.9651 -0.0620269 0 0 0 6.16959 20.967 1.52295 -31.4056 -12.398 -31.3833 3.91397e-007 3.90573e-008 4.40079e-007 178.014 -60.3616 178.436 17.9021 -26.1985 57.6747 -2.82398e-007 -3.48857e-007 -1.18687e-006 
3.1115e-005 -3.30911e-005 -0.00244854 0.748901 1.17034 -5.94472 -0.973441 -1.09778 0.720357 0 0 0 82.2907 0.906654 13.2744 1.29259 21.2701 0.776034 0 0 0 -82.4138 -2.28929 16.7905 1.33253 -21.8669 -0.203574 0 0 0 6.09926 20.5218 1.55563 -31.145 -12.2299 -31.3312 4.02103e-007 2.64982e-008 4.46601e-007 178.197 -59.8877 178.153 17.6274 -26.0835 57.9022 0 0 0 
3.03013e-005 -3.34461e-005 -0.00244942 0.800289 1.61628 -6.21543 -0.900198 -0.895122 0.458631 0 0 0 81.8793 0.602685 12.7165 1.56018 21.5519 0.774137 0 0 0 -82.4364 -2.44184 17.4927 1.32687 -21.5181 -0.325188 0 0 0 6.15518 19.9951 1.81684 -31.3529 -11.8991 -30.4229 0 0 0 178.489 -59.1287 177.755 17.1505 -26.0573 58.1823 0 0 0 
2.99551e-005 -3.3754e-005 -0.00245002 0.889079 2.11135 -6.43881 -1.05332 -0.986675 0.488504 0 0 0 81.8318 0.697367 12.3649 1.85632 21.2776 0.825677 0 0 0 -82.504 -2.21989 17.9053 1.66644 -21.1584 -0.414136 6.85689e-007 3.93665e-007 -3.67768e-007 6.1046 19.9245 2.04112 -31.6606 -11.8482 -29.7888 0 0 0 178.693 -59.3181 177.509 18.0502 -26.6902 57.0192 0 0 0 
2.70748e-005 -3.44852e-005 -0.00245118 0.830888 2.87912 -6.78069 -1.06547 -0.555415 0.514215 0 0 0 81.7781 0.414122 11.2304 2.04715 21.084 0.861172 0 0 0 -82.2875 -2.32827 19.1235 0.492489 -18.0709 -0.100504 0 0 0 6.5901 22.1461 2.4178 -34.7702 -11.9144 -27.1184 0 0 0 179.284 -59.0827 177.018 17.4126 -27.0937 57.2451 0 0 0 
2.66369e-005 -3.44852e-005 -0.00245118 0.810591 3.26488 -6.83107 -1.1456 -0.917127 0.546028 0 0 0 81.8834 0.440361 11.2128 1.87888 20.9692 0.810649 0 0 0 -82.2569 -2.11802 19.1492 0.0638961 -17.822 0.0573485 0 0 0 6.74394 23.5623 2.5747 -36.4076 -12.0993 -25.6654 0 0 0 179.237 -57.8808 177.021 17.1993 -26.7497 57.4299 0 0 0 
2.53588e-005 -3.44852e-005 -0.00245118 0.744924 3.69428 -6.9188 -1.31268 -1.12233 0.503573 6.61863e-009 -6.79919e-008 4.00389e-008 81.7266 0.307223 11.0072 2.02357 20.8648 0.738113 0 0 0 -82.2633 -1.59844 19.3949 -0.63626 -17.7199 0.363222 0 0 0 6.77202 20.1304 2.54766 -34.8902 -10.8825 -24.1857 0 0 0 179.004 -55.1878 177.12 16.2533 -25.8881 58.2613 -1.50479e-007 -5.26977e-007 -1.21857e-006 
2.41084e-005 -3.42503e-005 -0.00245063 0.578004 3.6696 -7.04223 -1.15413 -0.776182 0.380496 0 0 0 81.58 0.0141107 10.7052 1.14932 20.6171 0.368291 0 0 0 -82.2902 -1.25278 19.7622 -0.441297 -18.4889 0.341811 0 0 0 7.14116 19.7113 2.61322 -34.3835 -11.072 -24.3884 0 0 0 179.221 -67.0257 177.336 26.7181 -29.7954 47.9957 0 0 0 
2.41084e-005 -3.41158e-005 -0.00244981 0.578913 3.61604 -7.16143 -1.14887 -0.656259 0.506018 0 0 0 81.5251 0.0757187 10.6403 1.28744 20.3137 0.38843 0 0 0 -82.3921 -1.29501 19.8279 -0.299586 -18.5803 0.325388 0 0 0 7.30414 22.3413 2.39859 -35.918 -11.7869 -24.9795 4.50354e-008 -3.87966e-007 7.91637e-007 179.241 -68.4577 177.164 27.3817 -29.7895 47.5154 0 0 0 
2.41084e-005 -3.41096e-005 -0.00244934 0.397997 3.70596 -7.23237 -0.976894 -0.801038 0.568642 0 0 0 81.1515 0.092088 10.6736 1.68874 20.2333 0.399893 0 0 0 -82.4923 -1.29266 19.7966 -0.522211 -18.9945 0.434104 0 0 0 7.45374 20.2701 2.4189 -35.2179 -11.0115 -23.5093 0 0 0 -179.618 -72.3453 176.178 31.4956 -30.2917 43.187 -8.77207e-007 5.23516e-007 -1.06503e-006 
3.08739e-005 -3.41096e-005 -0.00244694 0.0366544 3.20772 -7.52423 -0.73859 -0.47342 0.983092 2.23006e-008 -5.49586e-008 3.481e-008 80.4927 0.0612353 10.7794 2.90204 19.7093 0.534083 -3.60867e-007 3.14122e-007 7.33683e-007 -82.0629 -1.43832 19.6444 0.12081 -19.6719 0.152414 0 0 0 7.68666 21.4854 3.04274 -35.6162 -11.5651 -24.5346 0 0 0 -179.836 -61.8294 176.103 20.9509 -27.4943 54.3521 0 0 0 
3.55851e-005 -3.41011e-005 -0.00244613 -0.457019 2.71144 -7.56438 -0.604746 -0.469644 0.980113 -2.49356e-009 -8.05723e-008 3.41303e-008 80.3634 -0.371804 11.2239 3.5152 20.6324 0.619943 0 0 0 -81.7747 -1.36089 19.2238 0.663382 -19.6031 0.0126287 0 0 0 7.78771 19.9016 2.80386 -34.0017 -11.3345 -25.4487 0 0 0 179.552 -52.3973 176.764 14.0036 -22.7397 61.6934 0 0 0 
4.04415e-005 -3.41011e-005 -0.00244535 -0.708366 1.99924 -7.61168 -1.02633 -0.311802 1.12747 0 0 0 81.264 -0.453646 11.7342 3.01892 20.9762 0.52446 -3.68599e-007 3.52401e-007 7.35657e-007 -80.9841 -1.62994 18.6849 0.728497 -20.0933 -0.0427138 0 0 0 7.61692 17.7491 2.85902 -31.9003 -10.7668 -26.4108 3.34383e-007 8.77381e-008 8.13479e-007 -179.911 -51.1528 176.413 11.8218 -21.6142 63.8691 0 0 0 
6.13389e-005 -3.4272e-005 -0.00244288 -1.2374 0.331203 -7.74355 0.00234187 -0.0513824 1.56897 0 0 0 81.2584 -0.373832 12.9905 0.630882 21.3934 -0.188826 0 0 0 -80.8997 -2.02089 17.3215 0.653661 -20.598 -0.164891 0 0 0 6.37913 14.8438 3.09282 -28.0402 -9.9888 -29.0715 3.1271e-007 -1.38299e-007 8.48497e-007 179.673 -52.3874 175.837 10.5604 -20.7635 65.6582 0 0 0 
6.88482e-005 -3.4272e-005 -0.00244288 -1.63505 0.166989 -7.56909 0.223472 -0.501506 1.04843 2.52646e-008 -1.00551e-009 3.76177e-008 81.5111 -0.609294 13.5991 -0.81655 21.2558 -0.687926 0 0 0 -80.9634 -1.51385 16.8263 0.750232 -20.2264 -0.101043 0 0 0 5.77582 13.1507 2.24762 -26.8479 -8.07961 -29.1042 0 0 0 179.246 -52.2068 176.18 8.67368 -21.1612 66.5972 0 0 0 
7.06584e-005 -3.40944e-005 -0.00244285 -1.98787 -0.119965 -7.51993 0.520258 -0.557097 1.10839 2.23e-008 2.13384e-008 4.35676e-008 81.7466 -0.557797 13.8756 -1.37401 21.2953 -0.829454 -6.67829e-007 3.69078e-007 7.24397e-007 -80.9667 -1.48606 16.5194 0.484627 -20.2936 0.0315768 0 0 0 5.99912 18.1879 1.58832 -29.3907 -9.49172 -33.57 0 0 0 179.598 -53.0072 176.155 8.76109 -21.5112 66.4534 0 0 0 
7.68129e-005 -3.26014e-005 -0.0024427 -1.80593 -0.617102 -7.45631 -2.0481 -0.887543 1.69136 0 0 0 84.9678 -1.3137 8.0693 -1.47496e-006 23.7354 -2.65986e-006 0 0 0 -79.0924 -1.66422 15.5334 0.655666 -18.7147 0.179509 0 0 0 1.67398 6.18111 -1.71917 -16.0701 -3.10819 -30.6733 0 0 0 -174.36 -73.8116 173.439 17.2761 -43.0441 50.7314 1.55623e-008 -7.50585e-007 -1.53545e-006 
8.1968e-005 -2.96115e-005 -0.00244142 -2.14189 -1.439 -7.25286 -0.814995 -0.436329 1.11938 0 0 0 82.8895 -2.45183 9.144 9.33757e-006 26.8456 -2.44926e-008 0 0 0 -80.2236 -0.980202 15.3071 0.65885 -18.5678 0.305097 0 0 0 0.0294024 5.35527 -3.50384 -14.7009 -3.3927 -28.0466 0 0 0 -0.540277 -20.7383 1.86983 14.5201 27.6644 -41.619 -6.20904e-008 -5.25589e-008 -8.00224e-009 
8.88606e-005 -2.43867e-005 -0.00244052 -2.50973 -1.91384 -7.14535 0.237355 -0.178289 0.867775 7.68868e-008 9.47796e-008 4.8517e-008 79.8814 -5.42121 13.6379 -2.91338e-006 33.7339 -3.26385e-006 0 0 0 -80.7459 -0.553728 15.1694 -0.368343 -17.9496 0.600956 0 0 0 -2.14235 3.04287 -3.93492 -8.67373 -2.75793 -29.1011 0 0 0 1.48584 -12.4719 1.69114 7.58894 20.2333 -43.829 0 0 0 
9.29794e-005 -1.98947e-005 -0.00244048 -2.8048 -2.01855 -6.91961 0.349168 -0.343627 1.30006 6.48822e-008 8.10733e-008 8.71677e-008 77.579 -7.76969 22.8551 -6.34953e-006 40.7227 -6.461e-006 0 0 0 -80.3488 -0.514236 14.8083 -1.72034 -19.1035 1.07111 0 0 0 -6.55399 -1.07287 -4.3328 3.25601 0.572824 -28.9822 0 0 0 1.77818 -10.1361 1.59991 8.15393 17.4748 -41.2222 -2.68594e-007 1.00123e-007 3.05773e-007 
9.43884e-005 -1.86327e-005 -0.00244013 -3.05432 -2.05385 -6.79185 0.452054 -0.368665 1.2296 5.59216e-008 7.91546e-008 8.99186e-008 76.6722 -8.91766 25.2682 -1.77537e-005 42.7828 -9.16735e-006 0 0 0 -80.3032 -0.206326 14.7581 -1.88979 -18.7832 1.16965 3.25623e-007 5.92125e-007 -5.6403e-007 -6.44545 -1.16386 -4.127 3.52276 0.790162 -29.0457 0 0 0 2.01577 -10.7958 1.64737 8.81357 18.3966 -40.9316 -2.27141e-007 8.22308e-008 3.15853e-007 
9.72414e-005 -1.5486e-005 -0.00244007 -3.40584 -1.79129 -6.58125 0.964328 -0.58513 0.988052 6.74062e-008 8.41532e-008 8.77713e-008 73.3864 -11.7616 31.5072 -2.84354e-006 48.5408 -7.41049e-007 0 0 0 -80.5434 0.31106 14.8346 -2.24159 -19.0158 1.35579 0 0 0 -7.04854 -1.74485 -3.31173 5.40829 0.918657 -28.9025 6.72431e-008 3.43152e-008 9.37997e-007 2.46555 -9.34202 1.59157 8.43761 16.4508 -40.0595 0 0 0 
